<svg width="100" height="100" viewBox="0 0 100 100" fill="none" xmlns="http://www.w3.org/2000/svg">
<mask id="mask0_199_1693" style="mask-type:alpha" maskUnits="userSpaceOnUse" x="0" y="0" width="100" height="100">
<rect width="100" height="100" rx="24" fill="#6A5AE0"/>
</mask>
<g mask="url(#mask0_199_1693)">
<path d="M103.217 72.2475C103.216 86.2713 97.6008 99.7207 87.6051 109.637C77.6094 119.554 64.0526 125.125 49.9166 125.125C49.1876 125.125 48.4724 125.111 47.7434 125.084C43.8498 124.926 39.9851 124.35 36.2168 123.365C36.9458 122.996 37.6611 122.628 38.3763 122.232C38.3901 122.232 38.4038 122.218 38.4313 122.205L38.4451 122.191C39.2016 121.782 39.9444 121.372 40.6734 120.949C40.8522 120.84 41.031 120.745 41.2098 120.649C41.8976 120.24 42.5853 119.83 43.2593 119.394C43.4586 119.287 43.6514 119.168 43.837 119.039C44.3597 118.725 44.8824 118.384 45.3913 118.043C45.7489 117.811 46.1203 117.565 46.4642 117.333C46.9869 116.978 47.4958 116.624 48.0047 116.255C48.3486 116.023 48.6649 115.791 48.9951 115.532C49.4352 115.232 49.8616 114.904 50.288 114.577C50.6732 114.304 51.0445 114.017 51.4159 113.717C51.9386 113.321 52.4475 112.912 52.9565 112.475C53.1765 112.312 53.3966 112.134 53.6167 111.943C54.1669 111.493 54.7033 111.029 55.2398 110.551C55.5286 110.306 55.8175 110.06 56.1063 109.787C56.4227 109.514 56.7253 109.241 57.0279 108.955C57.6056 108.436 58.1696 107.89 58.7335 107.345C58.809 107.283 58.8782 107.215 58.9398 107.14C59.49 106.621 60.0265 106.075 60.5491 105.53C60.9205 105.175 61.2644 104.806 61.5945 104.438C61.9934 104.042 62.3648 103.633 62.7362 103.223C62.9562 102.992 63.1626 102.76 63.3551 102.528C63.8503 101.982 64.3317 101.422 64.8132 100.863C65.0607 100.576 65.3083 100.276 65.5422 99.9758C65.8998 99.5664 66.2437 99.157 66.56 98.734C66.8901 98.3383 67.2065 97.9289 67.5091 97.5195C67.798 97.1647 68.0731 96.7963 68.3344 96.4415C68.692 95.9776 69.0359 95.5136 69.366 95.036C69.6961 94.5584 70.0538 94.0808 70.3839 93.5895C70.5477 93.3753 70.6993 93.1521 70.8378 92.9209C71.3054 92.2386 71.7594 91.5427 72.1995 90.8467C72.7635 89.9871 73.2999 89.1137 73.8088 88.2267C74.0427 87.8447 74.2627 87.4626 74.4828 87.0805C76.2666 83.9596 77.8561 80.733 79.242 77.4193C79.4483 76.9553 79.6409 76.4914 79.8197 76.0138C80.0398 75.5089 80.2324 74.9903 80.4249 74.4718C80.59 74.0488 80.755 73.6121 80.9063 73.1754C81.0852 72.6978 81.2502 72.2066 81.4153 71.729C82.0205 69.9823 82.5707 68.222 83.0521 66.4344C83.1759 65.9841 83.2997 65.5474 83.4097 65.0971C83.4923 64.8106 83.561 64.5376 83.6298 64.2511L83.9599 62.8592C84.4001 60.9624 84.7715 59.052 85.0878 57.1143L85.2941 55.8043C85.3217 55.5996 85.3492 55.4086 85.3767 55.2039C85.4592 54.6854 85.528 54.1668 85.583 53.6483C85.6793 52.8705 85.7756 52.0927 85.8443 51.3149C85.8718 51.1102 85.8856 50.9055 85.8994 50.7008C85.9544 50.1686 85.9956 49.6228 86.0369 49.0906C86.0782 48.5584 86.1057 47.9989 86.1332 47.4531C86.1607 47.071 86.1745 46.6889 86.1882 46.2932C86.2432 45.0378 86.2707 43.7824 86.2707 42.527C86.2707 41.8856 86.2707 41.2579 86.2432 40.6302C86.2432 40.3027 86.2432 39.9888 86.2295 39.6613C86.1882 38.5287 86.1332 37.4098 86.0507 36.2908L86.0507 36.2499C86.0369 35.977 86.0232 35.7041 85.9956 35.4311C85.9406 34.6806 85.8718 33.9437 85.8031 33.1932C85.8035 33.1698 85.7988 33.1464 85.7893 33.125C87.6425 34.7995 89.3753 36.6006 90.9749 38.5151L91.0162 38.556C91.0237 38.5634 91.0285 38.5729 91.0299 38.5833C98.926 48.0509 103.237 59.9593 103.217 72.2475Z" fill="#FF8FA2"/>
<path d="M86.2168 42.2831C86.2242 58.6065 81.7879 74.6283 73.3773 88.6527C64.9668 102.677 52.8948 114.183 38.4392 121.951C38.4213 121.972 38.3972 121.987 38.3704 121.992L38.3568 122.006C37.6422 122.388 36.9277 122.757 36.2132 123.125C31.7288 121.951 27.4219 120.189 23.4065 117.885C20.5016 116.223 17.7597 114.295 15.2168 112.126C15.6977 111.621 16.1649 111.116 16.6321 110.598L16.6457 110.584C16.6457 110.57 16.6596 110.557 16.6734 110.543L16.687 110.543C31.7234 93.9463 40.0271 72.4011 39.992 50.0753C39.9942 40.458 38.4637 30.9009 35.4573 21.7588L35.4437 21.7588C35.4437 21.7315 35.4299 21.7042 35.4299 21.6769L35.416 21.6769C35.4082 21.655 35.4035 21.632 35.4024 21.6087C35.1276 20.7762 34.839 19.9438 34.5367 19.1251L49.8993 19.125C63.155 19.1068 75.9382 24.0135 85.7358 32.8807C85.8458 33.9178 85.9282 34.9549 85.9969 36.0057C86.1481 38.08 86.2168 40.1679 86.2168 42.2831Z" fill="#9087E5"/>
<path d="M40 49.95C40 50.8643 39.9864 51.7786 39.9591 52.6792C39.9455 53.266 39.9182 53.8392 39.8909 54.426C39.7819 56.7731 39.5774 59.1067 39.2774 61.4266C39.2093 62.027 39.1275 62.6138 39.032 63.2006C38.9366 63.9238 38.8139 64.6335 38.6912 65.3567C38.5821 66.039 38.4594 66.7077 38.3231 67.39C38.2958 67.5538 38.2549 67.7175 38.2276 67.8813C38.1186 68.4408 37.9959 69.0139 37.8732 69.5734C37.2328 72.4818 36.4456 75.3557 35.5146 78.1843C35.3374 78.7438 35.1465 79.2897 34.9556 79.8219C34.939 79.8875 34.9162 79.9515 34.8874 80.0129C34.6966 80.5724 34.5057 81.1046 34.3012 81.6505C34.2467 81.8142 34.1785 81.9916 34.1103 82.169C33.8922 82.7558 33.6604 83.329 33.4287 83.9021C33.1696 84.5572 32.897 85.2122 32.6107 85.8536C32.3244 86.5222 32.0244 87.1909 31.7245 87.8596C31.4382 88.4737 31.1382 89.0877 30.8519 89.6882C30.5384 90.3296 30.2248 90.9573 29.8976 91.5714C29.5704 92.1855 29.2432 92.8132 28.9023 93.4273C28.5615 94.0414 28.2207 94.6555 27.8798 95.2559C27.539 95.8563 27.1709 96.4704 26.8028 97.0709C26.4347 97.6713 26.0666 98.2581 25.6848 98.8449C24.935 100.018 24.1579 101.178 23.3535 102.311C22.5491 103.444 21.7039 104.563 20.8586 105.668C19.577 107.292 18.2501 108.875 16.8776 110.417L16.864 110.417C16.8503 110.431 16.8504 110.431 16.8504 110.444C16.8504 110.448 16.849 110.451 16.8464 110.454C16.8438 110.456 16.8404 110.458 16.8367 110.458C16.3732 110.977 15.896 111.495 15.4188 112C13.2707 110.152 11.2738 108.135 9.44741 105.968C9.43356 105.942 9.41506 105.919 9.39288 105.9C1.37516 96.3821 -3.01538 84.3294 -2.99996 71.8797L-2.99996 19L34.5875 19C34.8874 19.8188 35.1737 20.6376 35.4328 21.47L35.4464 21.4836C35.4476 21.5069 35.4523 21.5299 35.46 21.5519L35.4737 21.5519L35.4737 21.5928C35.4729 21.6002 35.4735 21.6077 35.4759 21.6148C35.4783 21.6219 35.4823 21.6283 35.4873 21.6337L35.5009 21.6337C35.5131 21.6858 35.5314 21.7362 35.5555 21.7838L35.7191 22.3161C36.1826 23.7626 36.6053 25.2227 36.987 26.7102C37.2597 27.7064 37.5051 28.7298 37.7368 29.7533C38.1595 31.6092 38.5276 33.5061 38.8412 35.4302C38.9093 35.8942 38.9911 36.3445 39.0457 36.8085C39.2093 37.9412 39.3592 39.0738 39.4819 40.2201C39.5365 40.6431 39.5774 41.0798 39.6046 41.5029C39.6864 42.2943 39.741 43.0995 39.7955 43.891C39.9318 45.897 40 47.9167 40 49.95Z" fill="#C4D0FB"/>
</g>
<rect width="100" height="90" rx="24" fill="white"/>
<mask id="mask1_199_1693" style="mask-type:alpha" maskUnits="userSpaceOnUse" x="23" y="14" width="54" height="62">
<path fill-rule="evenodd" clip-rule="evenodd" d="M48.3881 61.5758C50.2584 61.4893 52.0977 61.1912 53.8726 60.6961L56.3771 63.1771C58.7337 65.5115 62.563 65.5202 64.9302 63.1965C67.2973 60.8727 67.3059 57.0965 64.9493 54.7621L62.1056 51.9452C61.5754 51.42 60.9707 51.0125 60.3248 50.7228C58.4575 49.3959 55.821 49.5701 53.6936 50.6026C51.9109 51.4678 49.9513 51.9725 47.9312 52.066C44.314 52.2334 40.7632 51.0705 37.973 48.8046C35.1828 46.5387 33.3538 43.3327 32.8435 39.8133C32.3333 36.294 33.1785 32.7143 35.214 29.7742C37.2494 26.8341 40.3287 24.7449 43.8499 23.9151C47.3711 23.0852 51.081 23.5744 54.2543 25.2869C57.4276 26.9995 59.8362 29.8122 61.0091 33.1754C61.6378 34.9778 61.8873 36.8689 61.7621 38.7381C61.582 41.4278 62.6263 44.3347 65.1074 45.3887C67.5416 46.4228 70.4108 45.3097 70.9675 42.7243C71.8666 38.5496 71.6118 34.1835 70.1846 30.0916C68.2296 24.4863 64.2153 19.7983 58.9265 16.9441C53.6376 14.0898 47.4545 13.2746 41.5859 14.6577C35.7172 16.0408 30.585 19.5228 27.1927 24.4229C23.8003 29.3231 22.3916 35.2892 23.242 41.1548C24.0923 47.0203 27.1407 52.3637 31.791 56.1402C36.4414 59.9168 42.3594 61.8549 48.3881 61.5758ZM66.6856 65.8097C64.3187 68.1333 64.3098 71.9095 66.6662 74.2437C69.0226 76.578 72.852 76.5863 75.2189 74.2628C77.5859 71.9392 77.5948 68.163 75.2384 65.8288C72.882 63.4945 69.0526 63.4862 66.6856 65.8097Z" fill="#6A5AE0"/>
</mask>
<g mask="url(#mask1_199_1693)">
<path fill-rule="evenodd" clip-rule="evenodd" d="M55.8159 95.3206L104.829 46.928L94.2319 36.8096L38.1533 92.681L55.8159 95.3206Z" fill="#6A5AE0"/>
<path fill-rule="evenodd" clip-rule="evenodd" d="M46.1889 82.428L93.7172 36.496L83.4408 26.8921L29.0615 79.9226L46.1889 82.428Z" fill="#6A5AE0"/>
<path fill-rule="evenodd" clip-rule="evenodd" d="M31.8939 80.4718L87.7442 25.2468L77.955 14.9233L22.1047 70.1482L31.8939 80.4718Z" fill="#6A5AE0"/>
<path fill-rule="evenodd" clip-rule="evenodd" d="M21.809 71.5194L77.5536 16.1382L63.0688 10.0332L13.9082 58.8733L21.809 71.5194Z" fill="#6A5AE0"/>
<path fill-rule="evenodd" clip-rule="evenodd" d="M13.9082 59.6188L64.4204 10.0332L37.3603 12.6896L13.9082 37.9251V59.6188Z" fill="#6A5AE0"/>
</g>
</svg>
