<svg width="319" height="353" viewBox="0 0 319 353" fill="none" xmlns="http://www.w3.org/2000/svg">
<path opacity="0.1" fill-rule="evenodd" clip-rule="evenodd" d="M340.734 260.562C407.466 260.562 461.562 206.466 461.562 139.734C461.562 73.0028 407.466 18.9062 340.734 18.9062C274.003 18.9062 219.906 73.0028 219.906 139.734C219.906 206.466 274.003 260.562 340.734 260.562Z" fill="#C4D0FB"/>
<path opacity="0.2" fill-rule="evenodd" clip-rule="evenodd" d="M344 352C459.428 352 553 258.428 553 143C553 27.5725 459.428 -66 344 -66C228.572 -66 135 27.5725 135 143C135 258.428 228.572 352 344 352Z" stroke="#C4D0FB"/>
<path opacity="0.1" fill-rule="evenodd" clip-rule="evenodd" d="M24 266C37.2548 266 48 255.255 48 242C48 228.745 37.2548 218 24 218C10.7452 218 0 228.745 0 242C0 255.255 10.7452 266 24 266Z" fill="#C4D0FB"/>
</svg>
