<svg width="297" height="325" viewBox="0 0 297 325" fill="none" xmlns="http://www.w3.org/2000/svg">
<path opacity="0.1" fill-rule="evenodd" clip-rule="evenodd" d="M-5.26562 327.562C61.4659 327.562 115.562 273.466 115.562 206.734C115.562 140.003 61.4659 85.9062 -5.26562 85.9062C-71.9972 85.9062 -126.094 140.003 -126.094 206.734C-126.094 273.466 -71.9972 327.562 -5.26562 327.562Z" fill="#C4D0FB"/>
<path opacity="0.2" fill-rule="evenodd" clip-rule="evenodd" d="M-2 419C113.428 419 207 325.428 207 210C207 94.5725 113.428 1 -2 1C-117.428 1 -211 94.5725 -211 210C-211 325.428 -117.428 419 -2 419Z" stroke="#C4D0FB"/>
<path opacity="0.2" fill-rule="evenodd" clip-rule="evenodd" d="M287 125C292.523 125 297 120.523 297 115C297 109.477 292.523 105 287 105C281.477 105 277 109.477 277 115C277 120.523 281.477 125 287 125Z" fill="#C4D0FB"/>
</svg>
