<svg width="85" height="216" viewBox="0 0 85 216" fill="none" xmlns="http://www.w3.org/2000/svg">
<path opacity="0.1" fill-rule="evenodd" clip-rule="evenodd" d="M2.75 249C28.2932 249 49 228.293 49 202.75C49 177.207 28.2932 156.5 2.75 156.5C-22.7932 156.5 -43.5 177.207 -43.5 202.75C-43.5 228.293 -22.7932 249 2.75 249Z" fill="white"/>
<path opacity="0.2" fill-rule="evenodd" clip-rule="evenodd" d="M4 284C48.1828 284 84 248.183 84 204C84 159.817 48.1828 124 4 124C-40.1828 124 -76 159.817 -76 204C-76 248.183 -40.1828 284 4 284Z" stroke="white"/>
<path d="M63.8897 26.2817C63.5544 29.7671 62.4606 33.1369 60.6848 36.1549C58.9091 39.1727 56.4944 41.7654 53.6105 43.7511C50.7264 45.7368 47.4429 47.0674 43.99 47.6496C40.5372 48.2318 36.9989 48.0513 33.6233 47.1209C30.2475 46.1906 27.1164 44.5328 24.4492 42.2641C21.7822 39.9952 19.6439 37.1703 18.1844 33.9875C16.7248 30.8047 15.9794 27.3411 16.0004 23.8396C16.0215 20.3381 16.8084 16.8836 18.306 13.7186C22.5113 4.84671 31.9396 -0.876298 42.2777 0.110252C55.4732 1.36899 65.1494 13.0872 63.8897 26.2817Z" fill="#C4D0FB"/>
<path d="M55.3871 42.4185L54.5534 43.0853C53.6901 43.7439 52.7835 44.3436 51.8396 44.8803C49.0442 46.4647 45.9592 47.4718 42.7673 47.842C39.5755 48.2121 36.3419 47.9378 33.2581 47.0352C30.1742 46.1327 27.3029 44.6204 24.8143 42.5877C22.3258 40.5551 20.2705 38.0436 18.7704 35.202C22.5811 32.4012 28.9607 29.055 37.1213 29.738C50.7711 30.8865 55.3871 42.4185 55.3871 42.4185Z" fill="#6A5AE0"/>
<path d="M39.1238 35.4276C38.9702 35.428 38.8168 35.4189 38.6644 35.4003C37.6519 35.2797 36.7287 34.7619 36.0981 33.9607C35.4673 33.1596 35.1806 32.1408 35.301 31.1283L37.1224 15.8079C37.2431 14.7952 37.7611 13.872 38.5626 13.2413C38.9595 12.9291 39.4139 12.6981 39.9 12.5614C40.3862 12.4248 40.8944 12.3852 41.3959 12.445C41.8973 12.5048 42.382 12.6628 42.8224 12.91C43.2627 13.1571 43.6501 13.4885 43.9623 13.8853C44.2746 14.2821 44.5057 14.7367 44.6423 15.2227C44.779 15.7088 44.8186 16.2172 44.7588 16.7186L42.9374 32.0389C42.8258 32.9724 42.3763 33.8324 41.6735 34.4568C40.9708 35.0812 40.0638 35.4266 39.1238 35.4276Z" fill="#FFCCD7"/>
<path d="M42.3423 27.6011L43.1578 27.6922C44.1061 27.7991 45.0665 27.6957 45.9704 27.3893C46.8742 27.0829 47.6994 26.5811 48.3873 25.9195C49.0751 25.258 49.6088 24.4529 49.9501 23.5616C50.2914 22.6704 50.4321 21.7149 50.3622 20.763L50.0161 16.0478C49.9042 14.525 49.2595 13.0902 48.1949 11.9955C47.1304 10.9008 45.7141 10.2161 44.195 10.0617C42.4812 9.88791 40.7687 10.4019 39.4338 11.4908C38.0991 12.5796 37.2516 14.1541 37.0777 15.8677L36.6082 20.4908C36.4353 22.1923 36.9406 23.8931 38.0141 25.2243C39.0877 26.5554 40.6429 27.4094 42.3423 27.6011Z" fill="#FFCCD7"/>
<path d="M38.5647 22.5894L38.5655 22.5888C39.6888 21.8978 40.0392 20.427 39.3481 19.3036L38.6382 18.1497C37.9471 17.0265 36.4763 16.6761 35.3531 17.3671L35.3521 17.3676C34.2289 18.0587 33.8785 19.5295 34.5696 20.6527L35.2795 21.8067C35.9706 22.93 37.4413 23.2804 38.5647 22.5894Z" fill="#FFCCD7"/>
<path d="M35.6218 19.2329L37.5362 21.2566" stroke="#001833" stroke-width="0.5" stroke-linecap="square"/>
<path d="M47.005 16.647L47.1396 20.4363L45.7918 20.491" stroke="#001833" stroke-width="0.5" stroke-linecap="square"/>
<path d="M42.99 21.6676C42.8786 21.8735 42.8089 22.0995 42.7847 22.3324C42.7606 22.5653 42.7826 22.8007 42.8494 23.0251C42.9162 23.2495 43.0267 23.4586 43.1743 23.6403C43.322 23.8221 43.504 23.973 43.7099 24.0844C43.9159 24.1958 44.1418 24.2656 44.3747 24.2897C44.6076 24.3138 44.843 24.2918 45.0674 24.225C45.2918 24.1582 45.5009 24.0477 45.6826 23.9001C45.8644 23.7524 46.0153 23.5705 46.1267 23.3645C46.5952 22.4973 45.6835 22.1017 44.8113 21.6332C43.9391 21.1647 43.4585 20.8015 42.99 21.6676Z" fill="#001833"/>
<path d="M39.0661 20.9827L40.8874 14.1416L41.3195 12.5227C41.7255 12.9578 42.2007 13.3226 42.726 13.6023C44.6323 14.6283 50.3796 14.2195 51.1759 10.1894C51.8255 6.90288 48.3356 8.792 46.5487 8.58659C43.7409 8.2628 41.793 6.61046 37.948 8.68778C33.3492 11.1759 35.5277 17.2753 35.5277 17.2753C35.5277 17.2753 37.5514 16.483 39.0661 20.9827Z" fill="#001833"/>
<path opacity="0.4" d="M43.3613 27.7123L40.9258 27.4907L43.1498 29.6611L43.3613 27.7123Z" fill="#24272D"/>
<path d="M44.4096 18.6939C44.7789 18.6939 45.0784 18.3945 45.0784 18.025C45.0784 17.6556 44.7789 17.3562 44.4096 17.3562C44.0402 17.3562 43.7408 17.6556 43.7408 18.025C43.7408 18.3945 44.0402 18.6939 44.4096 18.6939Z" fill="#001833"/>
<path d="M48.3995 18.6939C48.769 18.6939 49.0684 18.3945 49.0684 18.025C49.0684 17.6556 48.769 17.3562 48.3995 17.3562C48.0301 17.3562 47.7307 17.6556 47.7307 18.025C47.7307 18.3945 48.0301 18.6939 48.3995 18.6939Z" fill="#001833"/>
</svg>
