<svg width="87" height="190" viewBox="0 0 87 190" fill="none" xmlns="http://www.w3.org/2000/svg">
<path opacity="0.1" fill-rule="evenodd" clip-rule="evenodd" d="M79.75 51C105.293 51 126 30.2932 126 4.75C126 -20.7932 105.293 -41.5 79.75 -41.5C54.2068 -41.5 33.5 -20.7932 33.5 4.75C33.5 30.2932 54.2068 51 79.75 51Z" fill="white"/>
<path opacity="0.2" fill-rule="evenodd" clip-rule="evenodd" d="M81 86C125.183 86 161 50.1828 161 6C161 -38.1828 125.183 -74 81 -74C36.8172 -74 1 -38.1828 1 6C1 50.1828 36.8172 86 81 86Z" stroke="white"/>
<path d="M71.7971 164.75C71.4066 168.801 70.134 172.717 68.0686 176.224C66.0044 179.73 63.1981 182.743 59.8459 185.05C56.4938 187.358 52.6771 188.904 48.664 189.58C44.652 190.256 40.5401 190.046 36.6164 188.965C32.6938 187.884 29.0547 185.958 25.9543 183.321C22.855 180.685 20.3686 177.402 18.6714 173.703C16.9753 170.005 16.1073 165.98 16.1308 161.91C16.1543 157.841 17.067 153.826 18.8066 150.147C23.6948 139.837 34.6557 133.182 46.6715 134.329C62.0137 135.792 73.2638 149.413 71.7971 164.75Z" fill="#C4D0FB"/>
<path d="M16.9246 147.846L17.6433 146.54C17.9456 145.887 18.2137 145.22 18.4478 144.54C18.8101 143.473 18.683 141.953 20.2697 140.516C21.8564 139.08 19.5099 139.477 18.7171 140.139C18.0561 140.69 17.5186 142.256 16.8611 142.609C16.7106 142.396 16.5918 142.163 16.5083 141.917L15.071 135.182C15.0498 135.075 14.991 134.978 14.9051 134.91C14.8181 134.842 14.7099 134.808 14.6005 134.813L14.337 134.821C14.2735 134.825 14.2112 134.841 14.1536 134.87C14.0971 134.899 14.0465 134.94 14.0065 134.989C13.9654 135.039 13.936 135.096 13.9195 135.158C13.9019 135.219 13.8983 135.284 13.9077 135.347C14.1289 136.788 14.8969 141.075 14.8193 141.077L14.6605 141.153L12.4563 134.331C12.4258 134.223 12.3564 134.131 12.2623 134.071C12.167 134.011 12.0541 133.988 11.9435 134.006L11.5907 134.065C11.5295 134.075 11.4707 134.097 11.4189 134.13C11.366 134.163 11.3213 134.206 11.286 134.257C11.2519 134.309 11.2272 134.366 11.2155 134.427C11.2037 134.488 11.2049 134.55 11.2178 134.611C11.5566 136.18 13.1409 141.401 13.0609 141.406L12.8668 141.471L10.4756 135.826C10.4427 135.713 10.3674 135.618 10.2651 135.559C10.164 135.501 10.044 135.483 9.9299 135.511L9.64879 135.58C9.58998 135.594 9.5347 135.62 9.48648 135.656C9.43825 135.691 9.39709 135.736 9.36533 135.788C9.33475 135.839 9.31358 135.897 9.30417 135.956C9.29476 136.016 9.29829 136.077 9.3124 136.135L11.4636 141.689L11.266 141.814L9.01248 137.802C8.96896 137.698 8.88898 137.615 8.78782 137.566C8.68785 137.518 8.57258 137.508 8.46438 137.538L8.33029 137.578C8.21502 137.612 8.11858 137.689 8.05977 137.793C8.00096 137.897 7.98449 138.02 8.01507 138.136C8.23149 138.959 9.30887 140.687 9.93578 142.488C10.4262 143.883 10.4604 145 11.2696 146.689C11.6107 147.405 12.2599 148.256 12.6139 148.73" fill="#FFCCD7"/>
<path d="M57.7899 186.37C52.5594 189.336 46.5103 190.532 40.5435 189.782C34.5779 189.031 29.0134 186.373 24.6804 182.204L25.0168 173.579L14.2194 171.796C12.6257 171.358 11.2401 170.367 10.3121 168.999C9.38413 167.632 8.97364 165.979 9.15478 164.336L10.0381 147.406L18.5689 147.995L18.8042 150.149L20.1227 161.521C20.1227 161.521 29.0475 162.637 41.2269 165.755C53.0828 168.791 56.5749 179.319 57.7899 186.37Z" fill="#6A5AE0"/>
<path d="M24.8991 173.47L24.9991 170.53" stroke="#C4D0FB" stroke-linecap="square"/>
<path d="M48.5005 155.198C51.7703 151.029 51.3045 145.205 47.4596 142.19C43.6158 139.174 37.8478 140.109 34.5781 144.277C31.3083 148.446 31.774 154.27 35.619 157.285C39.4639 160.301 45.2307 159.366 48.5005 155.198Z" fill="#001833"/>
<path d="M35.6108 169.126C34.9686 168.661 34.4958 168 34.264 167.242C34.0312 166.485 34.0523 165.672 34.3229 164.927L38.5689 153.269C38.7135 152.796 38.9535 152.357 39.2734 151.98C39.5922 151.603 39.9862 151.294 40.4284 151.074C40.8718 150.853 41.3541 150.725 41.8481 150.697C42.3421 150.668 42.8361 150.741 43.3007 150.91C43.7664 151.079 44.191 151.341 44.5521 151.68C44.912 152.018 45.2002 152.427 45.3978 152.88C45.5954 153.334 45.6989 153.823 45.7012 154.317C45.7036 154.812 45.606 155.302 45.4131 155.758L41.1659 167.417C40.9718 167.946 40.6589 168.422 40.2508 168.81C39.8427 169.197 39.3499 169.484 38.8123 169.65C38.2737 169.815 37.7044 169.853 37.1492 169.762C36.5941 169.67 36.0671 169.451 35.6108 169.123V169.126Z" fill="#FFCCD7"/>
<path d="M36.3317 162.625L35.626 162.363C34.8051 162.058 34.0617 161.576 33.4489 160.952C32.835 160.327 32.368 159.575 32.0775 158.749C31.7882 157.923 31.6847 157.043 31.774 156.172C31.8634 155.301 32.1434 154.461 32.5938 153.711L34.8286 149.994C35.5496 148.794 36.6705 147.886 37.9949 147.43C39.3181 146.974 40.7601 146.999 42.068 147.501C43.5429 148.067 44.732 149.195 45.3754 150.639C46.0176 152.082 46.0611 153.721 45.4954 155.196L43.9663 159.175C43.4041 160.64 42.2879 161.824 40.8577 162.469C39.4286 163.115 37.802 163.171 36.3317 162.625Z" fill="#FFCCD7"/>
<path d="M36.8952 152.103L33.8359 154.587L35.0368 155.489" stroke="#24272D" stroke-linecap="square"/>
<path d="M37.6725 153.858C38.0289 153.858 38.3182 153.569 38.3182 153.212C38.3182 152.855 38.0289 152.566 37.6725 152.566C37.3161 152.566 37.0268 152.855 37.0268 153.212C37.0268 153.569 37.3161 153.858 37.6725 153.858Z" fill="#24272D"/>
<path d="M34.987 152.499C35.3434 152.499 35.6327 152.21 35.6327 151.853C35.6327 151.497 35.3434 151.208 34.987 151.208C34.6306 151.208 34.3413 151.497 34.3413 151.853C34.3413 152.21 34.6306 152.499 34.987 152.499Z" fill="#24272D"/>
<path d="M54.5625 172.525C54.5625 172.525 51.5845 179.981 45.7835 176.669C36.18 171.184 38.1525 163.972 40.86 160.673C41.9386 159.359 43.4476 158.777 45.0225 158.299C40.4437 154.261 42.6949 151.046 42.6949 151.046C42.6949 151.046 30.4485 150.259 34.4087 144.45C38.3689 138.64 45.4424 139.401 49.1921 141.924C57.9076 147.791 54.9413 153.771 56.9302 155.973C68.2063 168.467 54.5625 172.525 54.5625 172.525Z" fill="#001833"/>
<path d="M46.3093 158.811C47.5761 158.041 47.9783 156.39 47.2079 155.124C46.4387 153.858 44.7885 153.456 43.5218 154.226L41.4376 155.493C40.172 156.263 39.7697 157.913 40.539 159.179C41.3094 160.445 42.9595 160.848 44.2251 160.078L46.3093 158.811Z" fill="#FFCCD7"/>
<path d="M45.7401 156.133L42.7832 157.929" stroke="#24272D" stroke-linecap="square"/>
<path d="M36.8187 157.309C36.8492 157.72 36.7163 158.126 36.4482 158.439C36.1788 158.751 35.7977 158.945 35.3861 158.976C34.9756 159.007 34.5686 158.874 34.2569 158.605C33.9441 158.337 33.75 157.955 33.7194 157.544C33.6535 156.688 34.5204 156.696 35.3755 156.63C36.2306 156.564 36.7528 156.452 36.8187 157.309Z" fill="#24272D"/>
</svg>
