<svg width="302" height="302" viewBox="0 0 302 302" fill="none" xmlns="http://www.w3.org/2000/svg">
<path opacity="0.1" fill-rule="evenodd" clip-rule="evenodd" d="M151 211C184.137 211 211 184.137 211 151C211 117.863 184.137 91 151 91C117.863 91 91 117.863 91 151C91 184.137 117.863 211 151 211Z" fill="white"/>
<path opacity="0.1" fill-rule="evenodd" clip-rule="evenodd" d="M151 255.999C208.99 255.999 256 208.989 256 150.999C256 93.0091 208.99 45.999 151 45.999C93.01 45.999 45.9999 93.0091 45.9999 150.999C45.9999 208.989 93.01 255.999 151 255.999Z" stroke="white" stroke-width="1.5"/>
<path opacity="0.1" fill-rule="evenodd" clip-rule="evenodd" d="M151 301C233.843 301 301 233.843 301 151C301 68.1573 233.843 1 151 1C68.1573 1 1 68.1573 1 151C1 233.843 68.1573 301 151 301Z" stroke="white" stroke-width="1.5"/>
</svg>
