<svg width="318" height="232" viewBox="0 0 318 232" fill="none" xmlns="http://www.w3.org/2000/svg">
<rect x="214" y="84.0986" width="104" height="147.902" fill="#9087E5"/>
<path d="M214 69.6689H302.873L318 84.0984H214L214 69.6689Z" fill="#AEA7EC"/>
<path d="M265.237 139.759C275.677 139.759 281.857 134.659 281.857 126.619C281.857 121.159 278.497 117.619 273.517 116.539C277.777 115.039 280.597 112.039 280.597 107.239C280.597 100.519 275.077 95.5986 265.657 95.5986C255.877 95.5986 250.297 101.359 249.817 109.219H258.397C258.877 105.199 261.397 102.739 265.477 102.739C269.437 102.739 271.417 105.019 271.417 108.079C271.417 111.739 269.377 113.779 264.877 113.779H261.757V120.259H265.117C269.737 120.259 272.017 122.359 272.017 126.439C272.017 130.279 269.737 132.619 264.877 132.619C259.717 132.619 257.497 129.619 257.137 125.479H248.377C248.737 134.179 254.317 139.759 265.237 139.759Z" fill="white"/>
<rect y="68" width="104" height="164" fill="#9087E5"/>
<path d="M14.1818 52H104V68H0L14.1818 52Z" fill="#AEA7EC"/>
<path d="M29.2491 150H72.4491V140.16H50.2091L61.0091 129.6C67.6491 123.2 72.0491 116.96 72.0491 109.36C72.0491 99.04 64.8491 92 52.2091 92C39.4091 92 31.4091 99.2 30.7691 112.4H42.5291C43.4091 104.88 46.6091 101.92 51.6491 101.92C56.6091 101.92 59.2491 104.96 59.2491 109.68C59.2491 114.88 55.7291 119.92 50.2091 125.76L29.2491 147.92V150Z" fill="white"/>
<rect x="104" y="14.4727" width="110" height="217.528" fill="url(#paint0_linear_59_1112)"/>
<path d="M120 0.324219H198L214 14.4724H104L120 0.324219Z" fill="#CDC9F3"/>
<path d="M155.167 104.473H171.367V32.9727H157.167L140.667 44.6727V58.4727L155.167 48.9727V104.473Z" fill="white"/>
<defs>
<linearGradient id="paint0_linear_59_1112" x1="159" y1="14.4727" x2="159" y2="167.449" gradientUnits="userSpaceOnUse">
<stop stop-color="#9087E5"/>
<stop offset="1" stop-color="#CDC9F3"/>
</linearGradient>
</defs>
</svg>
