<svg width="24" height="24" viewBox="0 0 24 24" fill="none" xmlns="http://www.w3.org/2000/svg">
<path d="M12.8484 2.75149C12.6234 2.52652 12.3182 2.40015 12 2.40015C11.6818 2.40015 11.3766 2.52652 11.1516 2.75149L2.75159 11.1515C2.533 11.3778 2.41205 11.6809 2.41478 11.9956C2.41751 12.3102 2.54372 12.6112 2.76621 12.8337C2.9887 13.0562 3.28967 13.1824 3.60431 13.1851C3.91894 13.1878 4.22207 13.0669 4.44839 12.8483L4.79999 12.4967V20.3999C4.79999 20.7181 4.92642 21.0234 5.15146 21.2484C5.3765 21.4735 5.68173 21.5999 5.99999 21.5999H8.39999C8.71825 21.5999 9.02347 21.4735 9.24852 21.2484C9.47356 21.0234 9.59999 20.7181 9.59999 20.3999V17.9999C9.59999 17.6816 9.72642 17.3764 9.95146 17.1514C10.1765 16.9263 10.4817 16.7999 10.8 16.7999H13.2C13.5182 16.7999 13.8235 16.9263 14.0485 17.1514C14.2736 17.3764 14.4 17.6816 14.4 17.9999V20.3999C14.4 20.7181 14.5264 21.0234 14.7515 21.2484C14.9765 21.4735 15.2817 21.5999 15.6 21.5999H18C18.3182 21.5999 18.6235 21.4735 18.8485 21.2484C19.0736 21.0234 19.2 20.7181 19.2 20.3999V12.4967L19.5516 12.8483C19.7779 13.0669 20.081 13.1878 20.3957 13.1851C20.7103 13.1824 21.0113 13.0562 21.2338 12.8337C21.4563 12.6112 21.5825 12.3102 21.5852 11.9956C21.5879 11.6809 21.467 11.3778 21.2484 11.1515L12.8484 2.75149Z" fill="#0C092A"/>
</svg>
