<svg width="351" height="426" viewBox="0 0 351 426" fill="none" xmlns="http://www.w3.org/2000/svg">
<circle cx="140" cy="418" r="4" fill="white"/>
<rect x="156" y="410" width="16" height="16" rx="8" fill="white"/>
<rect x="159" y="413" width="10" height="10" rx="5" fill="white" stroke="#6A5AE0" stroke-width="2"/>
<circle cx="188" cy="418" r="4" fill="white"/>
<path fill-rule="evenodd" clip-rule="evenodd" d="M96.8071 293.022L106.762 283.997L103.304 274.869L81.9977 290.508L99.257 320.291C99.257 320.291 99.8116 312.89 98.9093 304.691C98.286 299.027 96.8071 293.022 96.8071 293.022ZM192.031 312.986L189.757 305.741L180.131 306.243L188.142 326.142L218.917 308.516C209.785 305.784 192.031 312.986 192.031 312.986Z" fill="#001833"/>
<path fill-rule="evenodd" clip-rule="evenodd" d="M104.253 286.298L103.158 274.86L90.8953 284.034L96.8069 293.023L104.253 286.298ZM190.157 306.965L180.64 307.812L184.154 316.234L192.031 312.986L190.157 306.965Z" fill="#FFCCD7"/>
<path d="M141.798 199.553L129.919 158.676L161.597 158.883L178.672 158.883C178.704 168.831 177.52 185.217 171.251 203.876L191.155 296.628C191.402 297.792 190.984 298.955 190.134 299.708L193.159 310.333L180.797 313.893L177.852 303.993L177.775 304.018C176.022 304.591 174.135 303.628 173.596 301.89L153.931 238.612C151.713 241.847 149.297 245.075 146.67 248.281C130.04 268.577 119.676 279.524 114.346 284.79C112.443 286.673 109.483 286.765 107.475 285.226L99.8736 291.419L92.3261 281.147L99.8382 275.027C98.6341 273.116 98.8324 270.633 100.371 268.938C108.03 260.482 129.586 234.659 141.798 199.553Z" fill="#09074A"/>
<mask id="mask0_59_1112" style="mask-type:luminance" maskUnits="userSpaceOnUse" x="92" y="158" width="102" height="156">
<path d="M141.798 199.553L129.157 158.883H161.597L178.672 158.883C178.704 168.831 177.52 185.217 171.251 203.876L191.155 296.628C191.402 297.792 190.984 298.955 190.134 299.708L193.159 310.333L180.797 313.893L177.852 303.993L177.775 304.018C176.022 304.591 174.135 303.628 173.596 301.89L153.931 238.612C151.713 241.847 149.297 245.075 146.67 248.281C130.04 268.577 119.676 279.524 114.346 284.79C112.443 286.673 109.483 286.765 107.475 285.226L99.8736 291.419L92.3261 281.147L99.8382 275.027C98.6341 273.116 98.8324 270.633 100.371 268.938C108.03 260.482 129.586 234.659 141.798 199.553L141.798 199.553Z" fill="white"/>
</mask>
<g mask="url(#mask0_59_1112)">
</g>
<path opacity="0.0987491" fill-rule="evenodd" clip-rule="evenodd" d="M177.852 303.993L177.775 304.018C176.022 304.591 174.135 303.628 173.596 301.89L153.931 238.612L141.798 199.553L130.184 158.883H161.597L171.251 203.876L191.155 296.628C191.402 297.792 190.984 298.955 190.134 299.708L193.159 310.333L180.797 313.893L177.852 303.993Z" fill="white"/>
<path d="M184.483 301.533L179.276 303.361L158.385 231.695L145.496 187.483L137.16 158.883H147.727L149.584 166.096L163.899 221.646L184.483 301.533Z" fill="#EFEFEF"/>
<path fill-rule="evenodd" clip-rule="evenodd" d="M207.905 122.523C209.167 120.753 210.339 119.109 211.398 117.706C211.541 117.671 211.693 117.634 211.853 117.595C214.728 116.893 220.151 115.568 221.652 114.044C223.878 111.783 226.634 99.8996 225.467 98.8744C225.46 98.8701 225.428 98.8444 225.373 98.8008C224.7 98.2661 220.629 95.0331 219.184 95.328C218.212 94.8909 217.549 94.5993 217.549 94.5993L215.53 102.606C215.264 102.835 215.074 103.053 214.987 103.251C214.88 103.496 214.981 103.672 215.23 103.796L214.638 106.142L214.629 106.161C214.6 106.227 214.587 106.288 214.587 106.344L214.331 107.357L212.868 95.3391C212.868 95.3391 205.86 102.432 204.272 104.735C203.339 106.087 202.687 109.924 203.155 112.859L189.374 128.699L182.624 109.797L167.604 118.641C167.604 118.641 176.808 140.924 184.526 144.062C192.549 144.062 201.414 131.628 207.905 122.523ZM121.327 173.711L119.38 171.983L119.848 142.573L128.376 127.199L114.957 118.641C114.957 118.641 107.336 134.44 107.016 141.556C106.752 147.424 108.907 166.536 109.671 173.065C109.421 173.602 109.198 174.123 109.031 174.577C107.917 177.613 107.796 178.887 107.609 180.857C107.562 181.352 107.51 181.891 107.438 182.513C107.14 185.076 107.119 187.653 108.132 191.082C108.784 193.287 109.479 195.16 109.841 195.081C110.753 194.883 110.787 193.759 110.787 193.759L110.357 191.672L110.162 189.635C110.162 189.635 113.402 198.656 113.676 198.606C114.646 198.43 114.801 196.849 114.801 196.849C114.801 196.849 115.816 199.963 116.327 199.85C117.626 199.563 117.503 198.121 117.503 198.121C117.503 198.121 117.913 198.466 118.228 198.378C119.405 198.053 119.37 196.054 119.349 194.883C119.348 194.788 119.346 194.699 119.345 194.617C119.345 194.617 118.824 190.929 118.931 189.792C119.008 188.96 119.077 188.218 119.138 187.557C119.541 183.182 119.622 182.305 120.026 181.667C120.831 182.192 121.128 183.091 121.445 184.046C121.675 184.74 121.914 185.464 122.365 186.094C123.738 188.012 127.567 189.824 125.426 185.43C124.238 182.99 123.942 181.489 123.668 180.096C123.507 179.278 123.353 178.498 123.031 177.587C122.159 175.123 121.327 173.711 121.327 173.711Z" fill="#FFCCD7"/>
<path fill-rule="evenodd" clip-rule="evenodd" d="M179.602 158.828H129.963L129.131 128.933L114.462 118.348C114.462 118.348 120.676 108.351 133.502 96.7917C139.803 93.8757 141.061 93.7729 143.618 93.5639C143.983 93.5341 144.374 93.5021 144.811 93.4595H145.324H145.838L147.378 93.4595L150.459 93.4595L154.054 93.4595L156.108 93.4595L159.703 93.4595L162.27 94.4865L164.324 95.5135H165.351L166.012 95.6389C172.869 97.4855 179.349 101.293 183.137 108.044C183.442 108.588 183.721 109.112 183.976 109.616L184.029 109.606L184.195 110.059C185.111 111.942 185.673 113.547 185.971 114.915L189.106 123.49L181.444 128.129L179.602 158.828Z" fill="#9087E5"/>
<path opacity="0.200521" d="M129.13 128.932L133.112 131.598L142.682 120.603" stroke="#0C092A" stroke-width="5"/>
<path d="M220.028 109.497L219.335 112.854H208.104L213.401 86.1307H224.632C224.341 87.5992 223.655 91.0579 222.575 96.5069L220.367 95.4971L219.679 95.309L219.138 95.339L218.903 95.4971V96.1463L221.304 99.5528L219.467 100.342L216.641 101.805L215.825 102.362L215.509 102.651L215.25 102.88L215.086 103.076L214.987 103.251L214.945 103.479L214.987 103.579L215.036 103.657L215.108 103.727L216.034 104.05L218.146 103.479H220.235L217.447 104.05L215.611 105.134L214.987 105.714L214.634 106.141V106.531L215.25 106.804L219.138 106.364L217.85 107.055L216.998 107.577L216.216 107.975L215.611 108.744V109.124L215.825 109.347L216.368 109.632H217.196H218.864L220.028 109.497Z" fill="#5E93D1"/>
<path fill-rule="evenodd" clip-rule="evenodd" d="M208.102 112.854H206.244L211.541 86.1307H213.4L208.102 112.854Z" fill="#020101"/>
<path fill-rule="evenodd" clip-rule="evenodd" d="M215.334 89.2335C215.178 90.014 214.718 90.5827 214.306 90.503C213.894 90.4237 213.685 89.7266 213.84 88.9461C213.996 88.1652 214.456 87.5969 214.868 87.6762C215.281 87.7558 215.489 88.453 215.334 89.2335Z" fill="#020101"/>
<path d="M158.285 103C157.994 103.001 157.704 102.986 157.416 102.955C155.5 102.756 153.753 101.901 152.559 100.577C151.366 99.2545 150.823 97.5719 151.051 95.8997L154.498 70.5984C154.726 68.926 155.706 67.4014 157.223 66.3598C157.974 65.8441 158.834 65.4626 159.754 65.2369C160.674 65.0113 161.636 64.9459 162.585 65.0447C163.534 65.1434 164.451 65.4043 165.284 65.8125C166.118 66.2206 166.851 66.768 167.442 67.4232C168.033 68.0786 168.47 68.8293 168.728 69.632C168.987 70.4348 169.062 71.2743 168.949 72.1023L165.502 97.4036C165.291 98.9452 164.44 100.366 163.11 101.397C161.78 102.428 160.064 102.998 158.285 103Z" fill="#FFCCD7"/>
<path d="M165.084 91.0178L166.706 91.1989C168.592 91.4116 170.502 91.2059 172.299 90.5965C174.097 89.9872 175.738 88.9892 177.106 87.6732C178.475 86.3575 179.536 84.7563 180.215 82.9836C180.894 81.211 181.173 79.3106 181.034 77.4174L180.346 68.0393C180.124 65.0105 178.841 62.1568 176.724 59.9795C174.607 57.8022 171.79 56.4404 168.768 56.1335C165.36 55.7877 161.954 56.8101 159.299 58.9757C156.644 61.1413 154.959 64.2727 154.613 67.6811L153.679 76.8761C153.335 80.2601 154.34 83.6428 156.475 86.2905C158.61 88.9381 161.704 90.6366 165.084 91.0178Z" fill="#FFCCD7"/>
<path d="M157.57 81.0498L157.571 81.0486C159.806 79.6743 160.502 76.7489 159.128 74.5147L157.716 72.2196C156.341 69.9856 153.416 69.2887 151.182 70.663L151.18 70.664C148.946 72.0385 148.249 74.9639 149.624 77.1979L151.036 79.4931C152.41 81.7272 155.335 82.4241 157.57 81.0498Z" fill="#FFCCD7"/>
<path d="M151.717 74.3746L155.524 78.3995" stroke="#001833" stroke-linecap="square"/>
<path d="M174.357 69.2307L174.625 76.7674L171.944 76.8761" stroke="#001833" stroke-linecap="square"/>
<path d="M166.372 79.2166C166.15 79.6261 166.011 80.0755 165.963 80.5388C165.915 81.0021 165.959 81.4702 166.092 81.9165C166.225 82.3629 166.445 82.7787 166.738 83.1401C167.032 83.5018 167.394 83.8018 167.803 84.0234C168.213 84.245 168.662 84.3838 169.126 84.4317C169.589 84.4796 170.057 84.436 170.503 84.3029C170.95 84.1701 171.366 83.9504 171.727 83.6567C172.089 83.3631 172.389 83.0013 172.61 82.5915C173.542 80.8668 171.729 80.08 169.994 79.1482C168.259 78.2164 167.303 77.4939 166.372 79.2166Z" fill="#001833"/>
<path d="M158.567 77.8542L162.19 64.2478L163.049 61.0278C163.856 61.8932 164.802 62.6189 165.846 63.1751C169.638 65.2158 181.069 64.4028 182.653 56.3871C183.945 49.8505 177.004 53.6078 173.45 53.1993C167.865 52.5553 163.991 49.2689 156.343 53.4005C147.197 58.3492 151.53 70.4804 151.53 70.4804C151.53 70.4804 155.555 68.9047 158.567 77.8542Z" fill="#001833"/>
<path opacity="0.4" d="M166.083 91.2391L161.239 90.7984L165.662 95.1152L166.083 91.2391Z" fill="#0C092A"/>
<path d="M169.195 73.3019C169.93 73.3019 170.525 72.7064 170.525 71.9717C170.525 71.2369 169.93 70.6414 169.195 70.6414C168.46 70.6414 167.865 71.2369 167.865 71.9717C167.865 72.7064 168.46 73.3019 169.195 73.3019Z" fill="#001833"/>
<path d="M177.13 73.3019C177.865 73.3019 178.461 72.7064 178.461 71.9717C178.461 71.2369 177.865 70.6414 177.13 70.6414C176.396 70.6414 175.8 71.2369 175.8 71.9717C175.8 72.7064 176.396 73.3019 177.13 73.3019Z" fill="#001833"/>
<path d="M290.535 16H226.535V68H290.535V16Z" fill="#C4D0FB"/>
<path d="M258.535 60.3397C261.186 60.3397 263.335 58.5673 263.335 56.3808C263.335 54.1944 261.186 52.4219 258.535 52.4219C255.884 52.4219 253.735 54.1944 253.735 56.3808C253.735 58.5673 255.884 60.3397 258.535 60.3397Z" fill="white"/>
<path d="M257.108 43.2354C257.92 41.8486 258.886 40.556 259.988 39.3821C260.798 38.5317 261.524 37.6071 262.157 36.6207C262.632 35.8122 262.872 34.8897 262.851 33.9548C262.851 32.5643 262.394 31.4382 261.48 30.5765C260.566 29.7148 259.343 29.2832 257.812 29.2815C254.91 29.2815 252.719 30.5586 251.241 33.1127L247.335 29.9841C248.4 28.1196 249.943 26.5671 251.809 25.4846C253.637 24.44 255.787 23.9178 258.259 23.9178C261.269 23.9178 263.668 24.7215 265.455 26.3291C267.242 27.9368 268.135 30.1523 268.133 32.9756C268.156 34.1879 267.973 35.3953 267.592 36.5473C267.28 37.4739 266.839 38.353 266.283 39.1594C265.654 40.0096 264.981 40.8267 264.267 41.6074C263.405 42.5208 262.641 43.5211 261.989 44.5916C261.472 45.5353 261.217 46.5978 261.248 47.6712H256.12C256.12 45.8922 256.449 44.4136 257.108 43.2354Z" fill="white"/>
</svg>
