<svg width="370" height="187" viewBox="0 0 370 187" fill="none" xmlns="http://www.w3.org/2000/svg">
<path d="M35.7003 176.651L75.9578 133.216C79.579 129.306 81.9555 124.255 82.7442 118.791L86.1878 94.953L101.253 118.666L77.6158 167.584L103.3 175.796L127.593 133.55C129.814 129.687 130.93 125.203 130.802 120.658C130.673 116.114 129.307 111.712 126.873 108.001L106.482 76.9578L70.0597 52.9287L62.2127 66.2138C59.248 71.2353 57.5139 76.9877 57.1738 82.9312L55.48 112.511L9.89941 163.149L35.7003 176.651Z" fill="#09074A"/>
<path fill-rule="evenodd" clip-rule="evenodd" d="M123.051 24.5396C135.109 31.0613 143.603 60.9866 143.603 60.9866L168.853 73.3803L162.548 91.6171L128.902 76.1799L126.386 71.4472L120.592 88.9649L95.0842 78.692C93.098 77.8917 91.3518 76.5209 90.0348 74.7274C88.7175 72.934 87.8796 70.7859 87.6109 68.5156L87.0944 64.1607L69.9971 52.8802C69.9971 52.8802 79.2157 39.2135 82.7107 35.0372C89.6649 26.728 104.301 14.3946 123.051 24.5396ZM115.333 65.1653L125.167 69.1537L119.869 59.1897L115.333 65.1653Z" fill="#9087E5"/>
<path d="M84.541 61.055L71.6752 53.084" stroke="#6A5AE0" stroke-linecap="square"/>
<path d="M370 102.014L288.603 184.045H257.403L338.802 102.014H370Z" fill="#7F75E1"/>
<path d="M339.241 100.927L254.029 2.39258H282.475L367.682 100.927H339.241Z" fill="#7F75E1"/>
<path fill-rule="evenodd" clip-rule="evenodd" d="M251.711 1.30566H282.911L370 102.014H338.802L251.711 1.30566ZM365.364 99.8404L282.036 3.48014H256.347L339.677 99.8404H365.364Z" fill="#9087E5"/>
<path d="M167.003 76.1245C167.003 76.1245 173.892 79.2429 176.915 82.9216C179.938 86.6004 181.837 94.5159 181.837 94.5159C181.837 94.5159 163.49 97.0159 161.724 79.0569" fill="#FFCCD7"/>
<path d="M16.0658 164.179L4.3681 177.012L15.2401 184.046H48.756L30.9117 173.795L16.0658 164.179Z" fill="#162C56"/>
<path d="M82.0261 167.937L74.5416 184.045H117.381L99.537 173.794L82.0261 167.937Z" fill="#162C56"/>
<path d="M139.826 11.4966L121.711 27.859" stroke="#FFCCD7" stroke-width="10" stroke-linecap="round" stroke-linejoin="round"/>
<path d="M127.544 31.6874L128.638 32.354C129.911 33.1284 131.327 33.5903 132.784 33.7072C134.241 33.8239 135.704 33.5925 137.069 33.0297C138.434 32.4666 139.668 31.5859 140.682 30.4502C141.696 29.3144 142.465 27.9514 142.936 26.4579L145.265 19.0617C146.018 16.6726 145.967 14.0733 145.121 11.7206C144.276 9.36796 142.689 7.4124 140.64 6.19693V6.19693C138.329 4.82664 135.608 4.50321 133.075 5.29814C130.543 6.09331 128.407 7.94138 127.137 10.4361L123.711 17.168C122.45 19.6455 122.146 22.5596 122.864 25.2779C123.581 27.9963 125.263 30.2994 127.544 31.6874V31.6874Z" fill="#FFCCD7"/>
<path d="M125.041 21.6665L125.381 21.6107C127.284 21.2994 128.592 19.3822 128.304 17.3286L127.941 14.7472C127.653 12.6935 125.877 11.281 123.974 11.5923L123.634 11.6481C121.732 11.9595 120.423 13.8766 120.711 15.9303L121.074 18.5119C121.362 20.5656 123.138 21.9779 125.041 21.6665Z" fill="#FFCCD7"/>
<path fill-rule="evenodd" clip-rule="evenodd" d="M123.073 14.6172L124.564 18.9312Z" fill="#0C092A"/>
<path d="M123.073 14.6172L124.564 18.9312" stroke="#0C092A" stroke-linecap="square"/>
<path d="M139.962 19.7334L138.353 25.7527L136.367 25.1465" stroke="#0C092A" stroke-linecap="square"/>
<path d="M126.882 19.5159L133.541 10.2839L135.12 8.09069C135.434 9.01509 135.888 9.87718 136.463 10.6414C138.537 13.4337 146.883 16.5207 150.414 10.9023C153.293 6.31291 147.245 6.94335 144.849 5.47716C141.086 3.1728 139.322 -0.600162 132.666 0.0809999C124.689 0.885351 124.109 11.5714 124.109 11.5714C124.109 11.5714 127.437 11.6849 126.882 19.5159Z" fill="#24272D"/>
<path d="M126.481 30.0697L123.942 27.1011L124.051 32.2243L126.481 30.0697Z" fill="black" fill-opacity="0.3"/>
<path d="M136.798 20.3562C137.363 20.3562 137.821 19.862 137.821 19.2523C137.821 18.6426 137.363 18.1484 136.798 18.1484C136.234 18.1484 135.776 18.6426 135.776 19.2523C135.776 19.862 136.234 20.3562 136.798 20.3562Z" fill="#0C092A"/>
<path d="M142.412 23.03C142.977 23.03 143.435 22.5358 143.435 21.9261C143.435 21.3165 142.977 20.8223 142.412 20.8223C141.848 20.8223 141.39 21.3165 141.39 21.9261C141.39 22.5358 141.848 23.03 142.412 23.03Z" fill="#0C092A"/>
<path d="M338.802 102.014L257.403 184.046L170.314 83.3398L251.711 1.30566L338.802 102.014Z" fill="#9087E5"/>
<path d="M136.55 70.2983L133.068 75.6462" stroke="#C4D0FB" stroke-width="4" stroke-linecap="round"/>
<path d="M143.831 44.1758L146.541 55.142L155.54 56.258L152.065 64.316L144.231 71.2991L136.349 70.6083L134.062 63.6807L135.331 55.1106L143.831 44.1758Z" fill="#9087E5"/>
<path fill-rule="evenodd" clip-rule="evenodd" d="M153.257 61.8463C157.978 54.004 158.359 45.2288 154.107 42.2459C149.856 39.2633 142.582 43.2027 137.861 51.045C133.14 58.8871 132.759 67.6625 137.01 70.6451C141.262 73.6277 148.535 69.6883 153.257 61.8463Z" stroke="#C4D0FB" stroke-width="4"/>
<path d="M162.727 184.045L154.873 171.33L147.017 184.045H162.727Z" fill="#C4D0FB"/>
<path d="M253.103 98.291L256.135 84.6968L243.345 86.8997L253.103 98.291Z" fill="#C4D0FB"/>
<path d="M233.972 184.046L213.369 150.696L192.763 184.046H233.972Z" fill="#C4D0FB"/>
<path d="M194.419 140.625H177.602V184.045H194.419V140.625Z" fill="#9087E5"/>
<path d="M265.033 95.0757L257.121 102.974L274.619 123.4L282.531 115.502L265.033 95.0757Z" fill="#C4D0FB"/>
<path d="M172.744 184.046C172.744 177.44 175.175 171.104 179.502 166.433C183.829 161.762 189.698 159.138 195.818 159.138C201.937 159.138 207.806 161.762 212.133 166.433C216.461 171.104 218.891 177.44 218.891 184.046" fill="#FFD6DD"/>
<path d="M239.239 82.1079C240.277 81.0709 241.116 79.8233 241.709 78.4361C242.302 77.0489 242.636 75.5494 242.692 74.0231C242.745 72.497 242.521 70.9738 242.031 69.5409C241.541 68.1081 240.796 66.7933 239.834 65.6718C238.874 64.5503 237.72 63.644 236.433 63.0049C235.149 62.3655 233.759 62.0056 232.345 61.946C230.933 61.8861 229.521 62.1276 228.195 62.6563C226.868 63.1853 225.648 63.9911 224.61 65.0281L239.239 82.1079Z" fill="#C4D0FB"/>
<path d="M132.319 24.4678C132.319 24.4678 131.793 26.6973 133.955 27.7963L132.319 24.4678Z" fill="#0C092A" stroke="#0C092A"/>
<path d="M115.466 64.8419L107.066 61.3008L106.836 41.4312" stroke="#6A5AE0" stroke-linecap="square"/>
<path d="M86.5346 60.9794L85.6799 47.0566" stroke="#6A5AE0" stroke-linecap="square"/>
<path d="M56.6343 117.9L54.6944 112.251L59.4626 111.451" stroke="#6A5AE0" stroke-linecap="square"/>
<path d="M104.726 122.77L100.28 118.47L106.44 115.144" stroke="#6A5AE0" stroke-linecap="square"/>
<path d="M86.8636 88.0425L85.436 104.881" stroke="#6A5AE0" stroke-linecap="square"/>
<path d="M125.653 74.2043C125.653 74.2043 128.45 72.627 132.773 72.9965L137.418 74.883C137.418 74.883 141.542 78.4531 135.888 84.7671C130.233 91.0811 120.901 87.2623 120.901 87.2623" fill="#FFCCD7"/>
</svg>
